<svg width="585" height="593" viewBox="0 0 585 593" fill="none" xmlns="http://www.w3.org/2000/svg">
<path d="M497.5 247.5C497.5 373.421 444.644 515.5 330.321 515.5C215.998 515.5 86 382.421 86 256.5C86 130.579 190.177 44 304.5 44C418.823 44 497.5 121.579 497.5 247.5Z" fill="#F58A07" fill-opacity="0.3"/>
<path d="M465.332 169.32C521.429 274.091 536.598 418.074 432.506 473.807C328.414 529.54 150.764 482.188 94.667 377.417C38.5703 272.646 94.8542 149.822 198.946 94.0887C303.038 38.3556 409.235 64.5488 465.332 169.32Z" fill="#F58A07" fill-opacity="0.3"/>
<path d="M364.171 463.644C261.475 499.794 128.184 491.102 90.5111 384.079C52.8383 277.057 118.534 117.155 221.23 81.0053C323.926 44.8554 428.865 117.525 466.538 224.547C504.211 331.57 466.867 427.495 364.171 463.644Z" fill="#F58A07" fill-opacity="0.3"/>
<path d="M484.278 281.478C475.631 400.007 411.428 529.773 293.668 521.181C175.907 512.59 51.1391 377.554 59.7867 259.025C68.4342 140.496 181.69 66.829 299.45 75.4205C417.211 84.012 492.926 162.949 484.278 281.478Z" fill="#F58A07" fill-opacity="0.3"/>
<path d="M494.336 191.731C518.338 308.126 491.954 450.481 376.314 474.327C260.673 498.173 103.811 402.278 79.8091 285.883C55.8075 169.488 144.682 67.7291 260.323 43.883C375.963 20.0369 470.334 75.336 494.336 191.731Z" fill="#F58A07" fill-opacity="0.3"/>
</svg>
